{"title":"Mama 2013 CAM XVID 1MPERiUM","uid":8071895,"size":1570683219,"categoryP":"video","categoryS":"movies","magnet":"?xt=urn:btih:cb71e77322e75434d32a9931dcad967e75879756&amp;dn=Mama+2013+CAM+XVID+1MPERiUM&amp;tr=udp%3A%2F%2Ftracker.openbittorrent.com%3A80&amp;tr=udp%3A%2F%2Fopen.demonii.com%3A1337&amp;tr=udp%3A%2F%2Ftracker.coppersurfer.tk%3A6969&amp;tr=udp%3A%2F%2Fexodus.desync.com%3A6969","seeders":1,"leechers":0,"uploader":"juggs99","files":3,"time":1359295957,"description":"26K Thanks\n\n\n &lt;a href=&quot;\nhttp://www.imdb.com/title/tt2023587/&quot; rel=&quot;nofollow&quot; target=&quot;_NEW&quot;&gt;\nhttp://www.imdb.com/title/tt2023587/&lt;/a&gt;\n\n\n\n\n\nGuillermo del Toro presents Mama, a supernatural thriller that tells the haunting tale of two little girls who disappeared into the woods the day that their mother was murdered. When they are rescued years later and begin a new life, they find that someone or something still wants to come tuck them in at night. The day their father killed their mother, sisters Victoria and Lilly vanished near their suburban neighborhood. For five long years, their Uncle Lucas (Nikolaj Coster-Waldau) and his girlfriend, Annabel (Jessica Chastain), have been madly searching for them. But when, incredibly, the kids are found alive in a decrepit cabin, the couple wonders if the girls are the only guests they have welcomed into their home. \n\n\n\n\n\nFormat                                   : AVI\nFormat/Info                              : Audio Video Interleave\nFile size                                : 1.44 GiB\nDuration                                 : 1h 33mn\nOverall bit rate                         : 2 219 Kbps\nWriting application                      : VirtualDubMod 1.5.10.2 (build 2540/release)\nWriting library                          : VirtualDubMod build 2540/release\n\nVideo\nID                                       : 0\nFormat                                   : MPEG-4 Visual\nFormat profile                           : Advanced Simple@L5\nFormat settings, BVOP                    : 2\nFormat settings, QPel                    : No\nFormat settings, GMC                     : No warppoints\nFormat settings, Matrix                  : Default (H.263)\nMuxing mode                              : Packed bitstream\nCodec ID                                 : XVID\nCodec ID/Hint                            : XviD\nDuration                                 : 1h 33mn\nBit rate                                 : 2 079 Kbps\nWidth                                    : 624 pixels\nHeight                                   : 352 pixels\nDisplay aspect ratio                     : 16:9\nFrame rate                               : 29.970 fps\nColor space                              : YUV\nChroma subsampling                       : 4:2:0\nBit depth                                : 8 bits\nScan type                                : Progressive\nCompression mode                         : Lossy\nBits/(Pixel*Frame)                       : 0.316\nStream size                              : 1.35 GiB (94%)\nWriting library                          : XviD 64\n\nAudio\nID                                       : 1\nFormat                                   : MPEG Audio\nFormat version                           : Version 1\nFormat profile                           : Layer 3\nCodec ID                                 : 55\nCodec ID/Hint                            : MP3\nDuration                                 : 1h 33mn\nBit rate mode                            : Constant\nBit rate                                 : 128 Kbps\nChannel(s)                               : 2 channels\nSampling rate                            : 44.1 KHz\nCompression mode                         : Lossy\nStream size                              : 85.3 MiB (6%)\nAlignment                                : Split accross interleaves\nInterleave, duration                     : 33 ms (1.00 video frame)\nInterleave, preload duration             : 500 ms\n\n\n &lt;a href=&quot;\nhttp://www.shotpix.com/images/30982245942706497800.png&quot; rel=&quot;nofollow&quot; target=&quot;_NEW&quot;&gt;\nhttp://www.shotpix.com/images/30982245942706497800.png&lt;/a&gt; &lt;a href=&quot;\nhttp://www.shotpix.com/images/87394557920545559935.png&quot; rel=&quot;nofollow&quot; target=&quot;_NEW&quot;&gt;\nhttp://www.shotpix.com/images/87394557920545559935.png&lt;/a&gt; &lt;a href=&quot;\nhttp://www.shotpix.com/images/99494643851672632138.png&quot; rel=&quot;nofollow&quot; target=&quot;_NEW&quot;&gt;\nhttp://www.shotpix.com/images/99494643851672632138.png&lt;/a&gt; &lt;a href=&quot;\nhttp://www.shotpix.com/images/83404647881575302351.png&quot; rel=&quot;nofollow&quot; target=&quot;_NEW&quot;&gt;\nhttp://www.shotpix.com/images/83404647881575302351.png&lt;/a&gt;","torrent":{"xt":"urn:btih:cb71e77322e75434d32a9931dcad967e75879756","amp;dn":"Mama+2013+CAM+XVID+1MPERiUM","amp;tr":["udp%3A%2F%2Ftracker.openbittorrent.com%3A80","udp%3A%2F%2Fopen.demonii.com%3A1337","udp%3A%2F%2Ftracker.coppersurfer.tk%3A6969","udp%3A%2F%2Fexodus.desync.com%3A6969"],"infoHash":"cb71e77322e75434d32a9931dcad967e75879756","infoHashBuffer":{"type":"Buffer","data":[203,113,231,115,34,231,84,52,211,42,153,49,220,173,150,126,117,135,151,86]},"announce":[],"urlList":[]}}